<?xml version="1.0" encoding="UTF-8"?><svg id="Livello_1" xmlns="http://www.w3.org/2000/svg" viewBox="0 0 661.72 135.51"><defs><style>.cls-1{fill:#fff;}</style></defs><path class="cls-1" d="M200.09,130.51V5.06c.12-4.08,5.2-5.06,5.2-5.06h-18.6s4.97,.92,5.19,4.93v125.57c-.17,3.98-5.2,5-5.2,5h18.6s-5.02-1.02-5.2-5Z"/><path class="cls-1" d="M549.22,130.51V5.14c.18-4.06,5.2-5,5.2-5h-18.6s5.02,.86,5.2,4.99v125.37c-.17,3.96-5.2,5-5.2,5h18.6s-5.02-.99-5.2-5Z"/><path class="cls-1" d="M654.88,131.22l-41.46-63.33c21.38,.34,36.94-11.29,36.94-33.69,0-10.94-3.76-21.2-13-27.7-8.72-6.33-18.98-6.5-29.41-6.5h-8.79V7.7h6.23c7.52,0,16.25-.34,23.09,2.91,9.23,4.1,13.68,13.68,13.68,23.26,0,7.7-2.91,15.39-9.06,20.35-6.5,5.64-14.54,5.99-22.57,5.99h-11.36l5.03,7.7,40.92,62.75h0c2.55,3.81-1.27,4.87-1.27,4.87h17.88s-3.79-.47-6.84-4.29Z"/><path class="cls-1" d="M286,10.6c6.84-3.25,15.56-2.91,23.09-2.91h6.23V0h-8.79c-10.43,0-20.69,.17-29.41,6.5-9.23,6.5-13,16.76-13,27.7,0,22.4,15.56,34.03,36.94,33.69l-41.46,63.33c-3.05,3.82-6.84,4.29-6.84,4.29h17.88s-3.76-1.06-1.2-4.87l-.08,.02,40.93-62.77,5.03-7.7h-11.36c-8.04,0-16.07-.34-22.57-5.99-6.16-4.96-9.06-12.65-9.06-20.35,0-9.58,4.45-19.15,13.68-23.26Z"/><g><path class="cls-1" d="M5.15,130.52c-.98,4.05-5.15,4.99-5.15,4.99H17.31s-4.89-1.22-4.3-4.95L34.06,27.09h.34l36.48,87.23,4.05-9.85L31.83,.58,5.15,130.52Z"/><path class="cls-1" d="M136.24,130.57L109.82,.58l-4.89,12.09,24,117.86c.61,3.77-4.3,4.97-4.3,4.97h17.3s-4.69-.93-5.7-4.94Z"/></g><path class="cls-1" d="M424.21,127.63c-32.91,0-60.05-27.31-60.05-59.88s27.14-59.88,60.05-59.88,60.05,27.31,60.05,59.88h8.4C492.66,30.64,461.32,0,424.21,0s-68.45,30.64-68.45,67.75,31.34,67.76,68.45,67.76v-7.88Z"/></svg>