<?xml version="1.0" standalone="no"?>
<!DOCTYPE svg PUBLIC "-//W3C//DTD SVG 20010904//EN"
 "http://www.w3.org/TR/2001/REC-SVG-20010904/DTD/svg10.dtd">
<svg version="1.0" xmlns="http://www.w3.org/2000/svg"
 width="700.000000pt" height="700.000000pt" viewBox="0 0 700.000000 700.000000"
 preserveAspectRatio="xMidYMid meet">
<metadata>
Created by potrace 1.14, written by Peter Selinger 2001-2017
</metadata>
<g transform="translate(0.000000,700.000000) scale(0.100000,-0.100000)"
fill="#000000" stroke="none">
<path d="M1580 6800 c-3 -8 -8 -33 -15 -70 -3 -19 -11 -55 -16 -80 -6 -25 -12
-54 -15 -65 -26 -128 -57 -285 -61 -305 -2 -14 -6 -33 -9 -42 -3 -9 -7 -27 -9
-40 -3 -13 -7 -34 -10 -48 -3 -14 -7 -34 -9 -45 -2 -11 -45 -220 -95 -465 -50
-245 -93 -456 -96 -470 -4 -23 -30 -148 -39 -195 -3 -11 -11 -52 -20 -90 -8
-39 -17 -82 -20 -95 -5 -31 -91 -447 -146 -715 -23 -110 -44 -211 -47 -225 -2
-14 -17 -86 -33 -160 -16 -74 -31 -152 -34 -172 -3 -21 -11 -59 -17 -85 -6
-27 -12 -55 -14 -63 -6 -25 -34 -163 -39 -190 -3 -14 -10 -50 -16 -80 -6 -30
-14 -66 -16 -80 -3 -14 -16 -77 -29 -140 -13 -63 -26 -126 -29 -140 -2 -14 -9
-45 -15 -70 -5 -25 -12 -56 -15 -70 -2 -14 -11 -59 -20 -100 -8 -41 -17 -86
-20 -100 -9 -47 -17 -85 -48 -230 -16 -80 -32 -156 -34 -170 -6 -29 -11 -55
-18 -90 -3 -14 -15 -70 -26 -125 -11 -55 -23 -111 -26 -125 -9 -42 -13 -61
-39 -190 -15 -69 -28 -136 -31 -150 -3 -14 -23 -111 -45 -217 -21 -106 -44
-216 -50 -245 -6 -29 -13 -64 -15 -78 -43 -218 -80 -372 -95 -403 -32 -61 -86
-114 -151 -147 -45 -22 -55 -30 -37 -30 38 -1 752 -1 773 -1 12 1 0 11 -30 26
-63 31 -106 70 -129 114 -24 49 -18 97 61 476 36 176 68 331 71 345 2 14 20
104 40 200 19 96 37 183 39 193 1 10 26 132 55 270 28 139 53 261 55 273 2 11
22 108 44 215 22 107 43 208 46 224 4 24 70 348 88 437 3 12 8 37 11 53 3 17
17 84 31 150 21 103 45 223 60 301 2 11 17 85 34 165 17 79 33 160 36 179 3
19 7 43 10 52 6 21 6 19 49 233 20 99 38 187 40 195 3 16 84 418 91 454 2 11
6 30 8 41 11 51 118 573 122 595 18 107 36 144 51 103 3 -10 59 -144 123 -298
65 -154 168 -401 230 -550 62 -148 118 -283 126 -300 14 -32 168 -400 229
-550 20 -49 45 -108 55 -130 10 -22 45 -107 79 -190 34 -82 68 -163 76 -180 7
-16 64 -151 125 -300 62 -148 120 -288 130 -310 10 -22 46 -107 80 -190 81
-198 189 -455 200 -480 5 -11 80 -189 166 -395 86 -206 157 -376 158 -377 4
-4 196 464 196 476 0 8 -157 395 -224 551 -13 30 -110 264 -216 520 -106 256
-198 479 -205 495 -7 17 -34 82 -61 145 -113 275 -257 619 -279 671 -14 31
-25 60 -25 63 0 4 -9 28 -21 54 -36 81 -44 100 -177 422 -259 628 -574 1387
-607 1465 -7 17 -68 163 -135 325 -131 318 -157 378 -160 370z"/>
<path d="M5391 6780 c-6 -14 -60 -146 -119 -294 l-109 -270 24 -110 c13 -61
25 -122 28 -136 2 -14 23 -115 46 -225 22 -110 43 -211 45 -225 3 -14 13 -65
24 -115 10 -49 21 -103 24 -120 3 -16 19 -95 35 -175 17 -80 33 -160 36 -177
3 -18 12 -61 20 -95 8 -35 17 -79 20 -98 3 -19 8 -42 10 -50 2 -8 6 -26 9 -40
2 -14 30 -151 61 -305 31 -154 59 -291 62 -305 2 -14 13 -65 23 -115 11 -49
21 -101 24 -115 2 -14 14 -70 26 -125 11 -55 25 -122 31 -150 5 -27 12 -61 15
-75 3 -14 7 -36 10 -50 2 -14 21 -104 40 -200 20 -96 38 -186 41 -200 2 -13
27 -133 54 -265 27 -132 51 -249 53 -260 2 -11 27 -135 56 -275 29 -140 53
-262 55 -270 2 -8 22 -107 45 -220 23 -113 43 -214 46 -225 16 -79 35 -173 38
-190 2 -11 12 -56 21 -100 9 -44 19 -93 22 -110 2 -16 8 -46 13 -65 5 -19 12
-51 15 -70 3 -19 8 -42 10 -50 2 -8 7 -28 10 -45 2 -16 23 -120 45 -229 22
-110 40 -215 40 -235 0 -71 -65 -145 -159 -182 l-46 -18 130 -1 c332 -2 688 0
693 5 3 3 -1 5 -9 5 -29 0 -120 50 -163 90 -71 65 -79 90 -142 405 -2 11 -11
55 -20 98 -8 42 -17 87 -20 100 -2 12 -6 33 -9 47 -3 14 -8 36 -10 50 -2 14
-13 66 -24 115 -11 50 -22 104 -25 120 -2 17 -16 84 -29 150 -28 137 -167 818
-172 843 -2 9 -31 152 -64 317 -34 165 -63 309 -65 320 -3 11 -21 101 -41 199
-20 99 -39 189 -41 200 -4 20 -29 147 -38 191 -25 117 -48 234 -51 250 -2 11
-8 40 -14 65 -5 25 -12 59 -15 75 -8 45 -105 520 -122 600 -2 11 -6 31 -9 45
-4 21 -88 433 -101 495 -2 11 -6 31 -9 45 -2 14 -14 70 -25 125 -11 55 -23
112 -25 127 -3 15 -19 91 -35 170 -17 79 -33 157 -36 173 -3 17 -12 64 -20
105 -9 41 -18 84 -20 95 -2 11 -22 110 -45 220 -22 110 -43 209 -45 220 -2 11
-11 54 -19 95 -8 41 -17 86 -20 100 -11 57 -66 326 -69 335 -2 6 -8 -1 -15
-15z"/>
</g>
</svg>
